<mxfile host="65bd71144e">
    <diagram id="xWBon8E2ZerF4x-uDdvp" name="Page-1">
        <mxGraphModel dx="1558" dy="721" grid="1" gridSize="10" guides="1" tooltips="1" connect="1" arrows="1" fold="1" page="1" pageScale="1" pageWidth="827" pageHeight="1169" math="0" shadow="0">
            <root>
                <mxCell id="0"/>
                <mxCell id="1" parent="0"/>
                <mxCell id="2" value="AlgConverter" style="html=1;" vertex="1" parent="1">
                    <mxGeometry x="200" y="520" width="110" height="50" as="geometry"/>
                </mxCell>
                <mxCell id="3" value="AlgLookup" style="html=1;" vertex="1" parent="1">
                    <mxGeometry x="200" y="400" width="110" height="50" as="geometry"/>
                </mxCell>
                <mxCell id="4" value="Block" style="html=1;" vertex="1" parent="1">
                    <mxGeometry x="600" y="160" width="110" height="50" as="geometry"/>
                </mxCell>
                <mxCell id="5" value="Cube" style="html=1;" vertex="1" parent="1">
                    <mxGeometry x="600" y="40" width="110" height="50" as="geometry"/>
                </mxCell>
                <mxCell id="6" value="Pochmann" style="html=1;" vertex="1" parent="1">
                    <mxGeometry x="200" y="160" width="110" height="50" as="geometry"/>
                </mxCell>
                <mxCell id="7" value="Interpreter" style="html=1;" vertex="1" parent="1">
                    <mxGeometry x="440" y="40" width="110" height="50" as="geometry"/>
                </mxCell>
                <mxCell id="8" value="MoveTranslator" style="html=1;" vertex="1" parent="1">
                    <mxGeometry x="440" y="160" width="110" height="50" as="geometry"/>
                </mxCell>
                <mxCell id="9" value="Pochmann&lt;br&gt;Translator" style="html=1;" vertex="1" parent="1">
                    <mxGeometry x="200" y="280" width="110" height="50" as="geometry"/>
                </mxCell>
                <mxCell id="10" value="Reducer" style="html=1;" vertex="1" parent="1">
                    <mxGeometry x="40" y="160" width="110" height="50" as="geometry"/>
                </mxCell>
                <mxCell id="11" value="" style="endArrow=diamondThin;endFill=1;endSize=24;html=1;" edge="1" parent="1" source="2" target="3">
                    <mxGeometry width="160" relative="1" as="geometry">
                        <mxPoint x="250" y="540" as="sourcePoint"/>
                        <mxPoint x="200" y="480" as="targetPoint"/>
                    </mxGeometry>
                </mxCell>
                <mxCell id="12" value="" style="endArrow=diamondThin;endFill=1;endSize=24;html=1;" edge="1" parent="1" source="4" target="5">
                    <mxGeometry width="160" relative="1" as="geometry">
                        <mxPoint x="420" y="230" as="sourcePoint"/>
                        <mxPoint x="620" y="140" as="targetPoint"/>
                    </mxGeometry>
                </mxCell>
                <mxCell id="13" value="" style="endArrow=diamondThin;endFill=1;endSize=24;html=1;" edge="1" parent="1" source="8" target="7">
                    <mxGeometry width="160" relative="1" as="geometry">
                        <mxPoint x="420" y="110" as="sourcePoint"/>
                        <mxPoint x="420" y="110" as="targetPoint"/>
                    </mxGeometry>
                </mxCell>
                <mxCell id="14" value="" style="endArrow=diamondThin;endFill=1;endSize=24;html=1;" edge="1" parent="1" source="3" target="9">
                    <mxGeometry width="160" relative="1" as="geometry">
                        <mxPoint x="220" y="380" as="sourcePoint"/>
                        <mxPoint x="380" y="380" as="targetPoint"/>
                    </mxGeometry>
                </mxCell>
                <mxCell id="15" value="" style="endArrow=diamondThin;endFill=1;endSize=24;html=1;" edge="1" parent="1" source="9" target="6">
                    <mxGeometry width="160" relative="1" as="geometry">
                        <mxPoint x="300" y="270" as="sourcePoint"/>
                        <mxPoint x="460" y="270" as="targetPoint"/>
                    </mxGeometry>
                </mxCell>
                <mxCell id="22" value="Solver" style="html=1;" vertex="1" parent="1">
                    <mxGeometry x="120" y="40" width="110" height="50" as="geometry"/>
                </mxCell>
                <mxCell id="23" value="" style="endArrow=diamondThin;endFill=1;endSize=24;html=1;" edge="1" parent="1" source="10" target="22">
                    <mxGeometry width="160" relative="1" as="geometry">
                        <mxPoint x="20" y="350" as="sourcePoint"/>
                        <mxPoint x="180" y="350" as="targetPoint"/>
                    </mxGeometry>
                </mxCell>
                <mxCell id="24" value="" style="endArrow=diamondThin;endFill=1;endSize=24;html=1;" edge="1" parent="1" source="6" target="22">
                    <mxGeometry width="160" relative="1" as="geometry">
                        <mxPoint x="220" y="50" as="sourcePoint"/>
                        <mxPoint x="380" y="50" as="targetPoint"/>
                    </mxGeometry>
                </mxCell>
            </root>
        </mxGraphModel>
    </diagram>
</mxfile>